<svg width="11" height="11" viewBox="0 0 11 11" fill="none" xmlns="http://www.w3.org/2000/svg">
<g clip-path="url(#clip0_1_66)">
<path d="M9.00553 4.05249H4.95304C4.45568 4.05249 4.05249 4.45568 4.05249 4.95304V9.00553C4.05249 9.5029 4.45568 9.90609 4.95304 9.90609H9.00553C9.5029 9.90609 9.90609 9.5029 9.90609 9.00553V4.95304C9.90609 4.45568 9.5029 4.05249 9.00553 4.05249Z" stroke="black" stroke-width="0.900553" stroke-linecap="round" stroke-linejoin="round"/>
<path d="M2.25138 6.75415H1.80111C1.56227 6.75415 1.33321 6.65927 1.16432 6.49038C0.995434 6.3215 0.900555 6.09244 0.900555 5.85359V1.8011C0.900555 1.56226 0.995434 1.3332 1.16432 1.16432C1.33321 0.99543 1.56227 0.900551 1.80111 0.900551H5.8536C6.09244 0.900551 6.3215 0.99543 6.49039 1.16432C6.65927 1.3332 6.75415 1.56226 6.75415 1.8011V2.25138" stroke="black" stroke-width="0.900553" stroke-linecap="round" stroke-linejoin="round"/>
</g>
<defs>
<clipPath id="clip0_1_66">
<rect width="10.8066" height="10.8066" fill="white"/>
</clipPath>
</defs>
</svg>
